<svg width="30" height="30" viewBox="0 0 30 30" fill="none" xmlns="http://www.w3.org/2000/svg">
<mask id="mask0_11_66" style="mask-type:alpha" maskUnits="userSpaceOnUse" x="0" y="0" width="30" height="30">
<rect width="30" height="30" fill="#D9D9D9"/>
</mask>
<g mask="url(#mask0_11_66)">
<path d="M24.9375 19.9375L23 18C23.9167 17.1458 24.6354 16.1354 25.1562 14.9688C25.6771 13.8021 25.9375 12.5625 25.9375 11.25C25.9375 9.9375 25.6771 8.70833 25.1562 7.5625C24.6354 6.41667 23.9167 5.41667 23 4.5625L24.9375 2.5625C26.1042 3.66667 27.0313 4.96875 27.7188 6.46875C28.4063 7.96875 28.75 9.5625 28.75 11.25C28.75 12.9375 28.4063 14.5313 27.7188 16.0313C27.0313 17.5313 26.1042 18.8333 24.9375 19.9375ZM20.9375 15.9375L18.9375 13.9375C19.3125 13.5833 19.6146 13.1823 19.8438 12.7344C20.0729 12.2865 20.1875 11.7917 20.1875 11.25C20.1875 10.7083 20.0729 10.2135 19.8438 9.76563C19.6146 9.31771 19.3125 8.91667 18.9375 8.5625L20.9375 6.5625C21.6042 7.16667 22.125 7.86979 22.5 8.67188C22.875 9.47396 23.0625 10.3333 23.0625 11.25C23.0625 12.1667 22.875 13.026 22.5 13.8281C22.125 14.6302 21.6042 15.3333 20.9375 15.9375ZM11.25 16.25C9.875 16.25 8.69792 15.7604 7.71875 14.7813C6.73958 13.8021 6.25 12.625 6.25 11.25C6.25 9.875 6.73958 8.69792 7.71875 7.71875C8.69792 6.73958 9.875 6.25 11.25 6.25C12.625 6.25 13.8021 6.73958 14.7812 7.71875C15.7604 8.69792 16.25 9.875 16.25 11.25C16.25 12.625 15.7604 13.8021 14.7812 14.7813C13.8021 15.7604 12.625 16.25 11.25 16.25ZM1.25 26.25V22.75C1.25 22.0625 1.42708 21.4167 1.78125 20.8125C2.13542 20.2083 2.625 19.75 3.25 19.4375C4.3125 18.8958 5.51042 18.4375 6.84375 18.0625C8.17708 17.6875 9.64583 17.5 11.25 17.5C12.8542 17.5 14.3229 17.6875 15.6563 18.0625C16.9896 18.4375 18.1875 18.8958 19.25 19.4375C19.875 19.75 20.3646 20.2083 20.7188 20.8125C21.0729 21.4167 21.25 22.0625 21.25 22.75V26.25H1.25ZM3.75 23.75H18.75V22.75C18.75 22.5208 18.6927 22.3125 18.5781 22.125C18.4635 21.9375 18.3125 21.7917 18.125 21.6875C17.375 21.3125 16.4115 20.9375 15.2344 20.5625C14.0573 20.1875 12.7292 20 11.25 20C9.77083 20 8.44271 20.1875 7.26562 20.5625C6.08854 20.9375 5.125 21.3125 4.375 21.6875C4.1875 21.7917 4.03646 21.9375 3.92188 22.125C3.80729 22.3125 3.75 22.5208 3.75 22.75V23.75ZM11.25 13.75C11.9375 13.75 12.526 13.5052 13.0156 13.0156C13.5052 12.526 13.75 11.9375 13.75 11.25C13.75 10.5625 13.5052 9.97396 13.0156 9.48438C12.526 8.99479 11.9375 8.75 11.25 8.75C10.5625 8.75 9.97396 8.99479 9.48438 9.48438C8.99479 9.97396 8.75 10.5625 8.75 11.25C8.75 11.9375 8.99479 12.526 9.48438 13.0156C9.97396 13.5052 10.5625 13.75 11.25 13.75Z" fill="#1C1B1F"/>
</g>
</svg>
